<svg xmlns="http://www.w3.org/2000/svg" xmlns:xlink="http://www.w3.org/1999/xlink" zoomAndPan="magnify" preserveAspectRatio="xMidYMid meet" version="1.0" viewBox="-0.45 823.13 1190.1 151.5"><defs fill="#000000"><clipPath id="dc74afec1f" fill="#000000"><path d="M 0 823 L 1189.5 823 L 1189.5 975 L 0 975 Z M 0 823 " clip-rule="nonzero" fill="#000000"/></clipPath></defs><g clip-path="url(#dc74afec1f)"><path fill="#a5d296" d="M 594.988281 876.207031 C 597.128906 869.785156 598.792969 863.359375 601.410156 857.414062 C 604.503906 850.515625 608.074219 843.617188 612.355469 837.191406 C 618.539062 827.675781 627.816406 823.394531 639.238281 823.15625 C 648.039062 822.917969 654.226562 827.4375 656.605469 836.003906 C 659.222656 844.804688 658.03125 853.605469 655.414062 862.410156 C 652.320312 872.164062 647.324219 880.964844 641.855469 889.769531 C 636.144531 899.285156 630.195312 908.800781 624.964844 918.554688 C 617.589844 932.113281 610.925781 945.675781 604.027344 959.472656 C 602.125 963.277344 598.554688 964.230469 594.75 964.230469 C 590.945312 964.230469 587.851562 963.042969 585.710938 959.234375 C 576.90625 941.867188 567.867188 924.261719 558.589844 907.136719 C 555.734375 901.902344 552.640625 896.90625 549.3125 892.148438 C 542.886719 882.394531 537.179688 872.402344 533.847656 860.980469 C 531.707031 853.371094 530.992188 845.519531 532.894531 837.90625 C 535.039062 827.914062 542.175781 823.15625 552.402344 823.871094 C 563.824219 824.582031 572.386719 830.054688 578.574219 839.332031 C 585.234375 849.085938 589.753906 860.03125 592.847656 871.449219 C 593.324219 872.878906 593.5625 874.542969 594.035156 875.96875 C 594.273438 875.730469 594.511719 875.96875 594.988281 876.207031 Z M 173.90625 910.703125 C 173.191406 909.988281 172.714844 909.277344 172 908.5625 C 158.917969 892.148438 141.789062 882.867188 121.328125 879.777344 C 109.195312 877.875 97.539062 875.96875 86.59375 870.023438 C 83.503906 868.355469 82.550781 868.832031 80.648438 870.972656 C 78.507812 873.589844 78.269531 875.492188 79.933594 877.871094 C 82.074219 880.726562 84.214844 883.582031 86.59375 885.960938 C 99.203125 899.285156 114.191406 908.324219 131.558594 914.035156 C 132.984375 914.507812 134.175781 914.984375 135.601562 915.460938 C 134.175781 916.414062 132.984375 916.652344 131.796875 916.652344 C 118.949219 915.9375 106.339844 915.222656 93.496094 914.746094 C 82.3125 914.273438 73.035156 909.039062 64.472656 902.375 C 61.855469 900.234375 59.238281 898.332031 56.382812 896.429688 C 44.726562 888.578125 32.117188 883.820312 17.84375 883.34375 C 14.035156 883.105469 10.230469 882.394531 6.421875 881.679688 C 3.09375 880.964844 2.378906 881.203125 0.714844 883.582031 C -0.714844 885.960938 -1.191406 888.339844 1.425781 890.480469 C 4.757812 893.097656 7.613281 895.953125 10.707031 898.808594 C 23.3125 909.988281 37.589844 917.363281 54.953125 918.316406 C 62.09375 918.792969 69.230469 919.503906 76.367188 920.695312 C 95.160156 923.789062 113.953125 925.453125 132.984375 925.214844 C 134.175781 925.214844 135.363281 925.214844 136.316406 925.214844 C 135.601562 926.40625 135.128906 926.640625 134.414062 927.117188 C 126.085938 931.402344 118.710938 936.871094 112.050781 943.296875 C 106.339844 949.003906 100.632812 954.714844 94.683594 960.425781 C 92.542969 962.328125 90.402344 964.230469 88.023438 965.894531 C 85.644531 967.5625 85.167969 968.75 86.121094 971.84375 C 87.070312 974.222656 87.785156 974.9375 90.878906 974.460938 C 94.445312 973.984375 97.777344 973.269531 101.34375 972.796875 C 121.566406 969.941406 138.457031 960.898438 152.257812 945.914062 C 156.539062 941.15625 161.058594 936.160156 165.816406 931.636719 C 169.621094 927.832031 173.667969 924.261719 178.1875 920.933594 C 181.042969 919.03125 184.371094 917.601562 187.703125 916.886719 C 203.878906 912.605469 220.058594 908.324219 236.234375 904.28125 C 237.1875 904.042969 238.375 903.804688 239.089844 903.804688 C 233.140625 909.988281 226.957031 915.9375 221.246094 922.359375 C 214.824219 929.734375 208.875 937.824219 201.5 944.484375 C 198.882812 946.863281 198.882812 949.242188 200.789062 952.574219 C 204.59375 951.621094 208.402344 950.671875 212.207031 949.71875 C 225.292969 945.675781 236.710938 939.25 246.464844 929.496094 C 253.839844 922.121094 259.550781 913.558594 265.257812 904.753906 C 267.636719 901.1875 270.253906 897.617188 272.871094 894.289062 C 274.0625 892.859375 275.964844 891.433594 277.867188 890.71875 C 294.28125 885.011719 310.933594 880.015625 327.828125 876.207031 C 328.777344 875.96875 329.96875 876.207031 332.109375 876.445312 C 330.679688 877.398438 330.441406 877.871094 329.96875 878.109375 C 316.167969 887.390625 305.941406 899.757812 297.851562 914.273438 C 295.472656 918.792969 292.617188 923.074219 289.285156 926.878906 C 286.90625 929.972656 286.90625 932.828125 288.574219 936.160156 C 290 938.773438 290.953125 939.011719 293.570312 938.0625 C 309.507812 931.636719 323.066406 922.359375 332.585938 907.847656 C 335.675781 903.089844 339.246094 898.332031 342.574219 893.8125 C 350.425781 882.632812 361.609375 875.96875 374.453125 872.402344 C 378.261719 871.210938 382.78125 870.972656 386.824219 871.210938 C 407.046875 872.164062 426.554688 876.921875 445.347656 884.773438 C 463.429688 892.386719 480.558594 901.425781 494.355469 915.699219 C 494.832031 916.175781 495.546875 917.125 496.257812 917.125 C 498.636719 917.601562 501.015625 918.078125 503.160156 918.078125 C 504.347656 918.078125 505.300781 916.886719 506.726562 915.9375 C 501.015625 909.277344 495.308594 903.804688 488.882812 899.285156 C 463.667969 881.679688 435.832031 870.972656 405.621094 866.453125 C 387.777344 863.835938 369.695312 863.835938 351.617188 865.738281 C 349.476562 865.976562 347.808594 865.738281 346.144531 864.074219 C 332.347656 850.753906 315.929688 841.710938 297.375 836.953125 C 286.667969 834.097656 275.488281 835.527344 265.019531 831.246094 C 263.117188 830.53125 260.738281 832.433594 259.3125 835.289062 C 258.121094 837.429688 258.835938 838.855469 260.5 840.285156 C 265.019531 844.089844 269.304688 848.136719 273.824219 851.941406 C 284.289062 860.742188 295.710938 867.167969 308.792969 871.210938 C 309.746094 871.449219 310.699219 871.925781 312.363281 872.640625 C 308.320312 873.828125 304.75 874.542969 301.417969 875.492188 C 282.863281 881.441406 264.308594 887.152344 245.75 893.335938 C 242.894531 894.289062 241.230469 894.050781 239.089844 891.910156 C 229.8125 882.632812 219.105469 876.207031 206.496094 872.402344 C 194.363281 868.832031 181.519531 866.929688 170.097656 860.980469 C 167.480469 859.554688 166.054688 860.507812 164.625 863.125 C 163.199219 865.738281 163.4375 866.929688 165.578125 869.546875 C 178.1875 884.535156 193.652344 895 212.445312 900.472656 C 213.394531 900.710938 214.347656 900.949219 215.300781 901.425781 C 201.738281 906.183594 188.179688 909.511719 174.855469 911.890625 C 174.378906 910.941406 174.144531 910.941406 173.90625 910.703125 Z M 1014.40625 911.417969 C 1001.082031 908.800781 987.523438 905.46875 973.964844 900.949219 C 974.914062 900.710938 975.867188 900.472656 976.816406 899.996094 C 995.613281 894.289062 1011.074219 884.058594 1023.683594 869.070312 C 1025.824219 866.453125 1026.0625 865.265625 1024.636719 862.648438 C 1023.207031 860.03125 1021.78125 859.078125 1019.164062 860.507812 C 1007.746094 866.453125 994.898438 868.355469 982.765625 871.925781 C 970.15625 875.730469 959.449219 882.15625 950.171875 891.433594 C 948.03125 893.574219 946.128906 893.8125 943.511719 892.859375 C 924.957031 886.914062 906.398438 880.964844 887.84375 875.019531 C 884.511719 874.066406 881.183594 873.113281 876.898438 872.164062 C 878.566406 871.449219 879.515625 870.972656 880.46875 870.734375 C 893.316406 866.691406 904.972656 860.03125 915.441406 851.464844 C 919.960938 847.660156 924.242188 843.617188 928.761719 839.808594 C 930.425781 838.382812 931.140625 836.953125 929.953125 834.8125 C 928.523438 831.957031 926.144531 829.816406 924.242188 830.769531 C 913.773438 835.050781 902.59375 833.863281 891.886719 836.476562 C 873.332031 841.238281 856.917969 850.277344 843.117188 863.597656 C 841.453125 865.265625 839.789062 865.503906 837.644531 865.265625 C 819.566406 863.359375 801.722656 863.359375 783.644531 865.976562 C 753.191406 870.5 725.359375 881.203125 700.378906 898.808594 C 693.953125 903.328125 688.246094 908.800781 682.535156 915.460938 C 683.960938 916.175781 684.914062 917.601562 686.105469 917.601562 C 688.484375 917.601562 690.863281 917.125 693.003906 916.652344 C 693.714844 916.414062 694.191406 915.699219 694.90625 915.222656 C 708.703125 900.949219 725.832031 891.910156 743.914062 884.296875 C 762.707031 876.445312 781.976562 871.6875 802.4375 870.734375 C 806.480469 870.5 810.761719 870.972656 814.808594 871.925781 C 827.65625 875.492188 838.835938 882.15625 846.6875 893.335938 C 850.015625 898.09375 853.347656 902.613281 856.679688 907.371094 C 866.195312 921.882812 879.992188 931.164062 895.695312 937.585938 C 898.3125 938.777344 899.5 938.300781 900.691406 935.683594 C 902.355469 932.351562 902.355469 929.496094 899.976562 926.40625 C 896.882812 922.359375 894.027344 918.078125 891.410156 913.796875 C 883.5625 899.285156 873.09375 886.914062 859.296875 877.636719 C 858.820312 877.398438 858.582031 877.160156 857.152344 875.96875 C 859.296875 875.96875 860.484375 875.496094 861.4375 875.730469 C 878.328125 879.300781 894.980469 884.535156 911.394531 890.242188 C 913.296875 890.957031 915.203125 892.148438 916.390625 893.8125 C 919.246094 897.144531 921.625 900.472656 924.003906 904.28125 C 929.714844 913.082031 935.421875 921.410156 942.796875 929.023438 C 952.3125 938.777344 963.972656 945.199219 977.054688 949.242188 C 980.863281 950.433594 984.667969 951.144531 988.476562 952.097656 C 990.378906 948.765625 990.378906 946.152344 987.761719 944.007812 C 980.148438 937.585938 974.4375 929.496094 968.015625 921.882812 C 962.304688 915.460938 956.121094 909.515625 950.171875 903.328125 C 950.886719 903.328125 951.839844 903.566406 953.027344 903.804688 C 969.207031 908.085938 985.382812 912.128906 1001.558594 916.414062 C 1004.890625 917.363281 1008.222656 918.554688 1011.074219 920.457031 C 1015.359375 923.550781 1019.402344 927.355469 1023.445312 931.164062 C 1028.203125 935.683594 1032.488281 940.441406 1037.007812 945.4375 C 1050.804688 960.664062 1067.695312 969.464844 1087.917969 972.320312 C 1091.484375 972.796875 1094.816406 973.507812 1098.386719 973.984375 C 1101.476562 974.460938 1102.429688 973.746094 1103.144531 971.367188 C 1104.09375 968.273438 1103.617188 967.085938 1101.238281 965.421875 C 1098.859375 963.753906 1096.71875 962.089844 1094.578125 959.949219 C 1088.632812 954.238281 1082.921875 948.53125 1077.210938 942.820312 C 1070.550781 936.398438 1063.175781 930.925781 1054.847656 926.644531 C 1054.136719 926.40625 1053.421875 925.929688 1052.945312 924.738281 C 1054.136719 924.738281 1055.324219 924.738281 1056.277344 924.738281 C 1075.308594 924.976562 1094.101562 923.550781 1112.898438 920.21875 C 1120.035156 919.03125 1127.171875 918.316406 1134.308594 917.839844 C 1151.4375 916.890625 1165.710938 909.277344 1178.558594 898.332031 C 1181.648438 895.476562 1184.742188 892.625 1187.835938 890.007812 C 1190.214844 888.101562 1189.976562 885.484375 1188.550781 883.105469 C 1187.121094 880.726562 1186.171875 880.488281 1182.839844 881.203125 C 1179.03125 881.917969 1175.226562 882.871094 1171.421875 882.871094 C 1157.382812 883.34375 1144.539062 888.101562 1132.878906 895.953125 C 1130.027344 897.855469 1127.410156 899.761719 1124.792969 901.902344 C 1116.226562 908.5625 1106.949219 913.558594 1095.769531 914.273438 C 1082.921875 914.984375 1070.3125 915.699219 1057.464844 916.175781 C 1056.277344 916.175781 1055.085938 915.9375 1053.660156 914.984375 C 1055.085938 914.511719 1056.277344 914.035156 1057.703125 913.558594 C 1075.070312 907.847656 1090.058594 898.808594 1102.667969 885.484375 C 1105.046875 882.871094 1107.1875 880.253906 1109.328125 877.398438 C 1111.230469 875.019531 1110.753906 873.117188 1108.613281 870.5 C 1106.949219 868.355469 1105.761719 867.882812 1102.667969 869.546875 C 1091.722656 875.496094 1080.066406 877.398438 1067.933594 879.300781 C 1047.472656 882.394531 1030.109375 891.671875 1017.261719 908.085938 C 1016.546875 908.800781 1016.070312 909.515625 1015.359375 910.226562 C 1015.359375 910.941406 1015.121094 910.941406 1014.40625 911.417969 Z M 1014.40625 911.417969 " fill-opacity="1" fill-rule="nonzero"/></g></svg>