<svg version="1.1" id="Layer_1" xmlns="http://www.w3.org/2000/svg" xmlns:xlink="http://www.w3.org/1999/xlink" x="0px" y="0px" viewBox="0 0 500 500" style="enable-background:new 0 0 500 500;" xml:space="preserve">
<path d="M418.9724121,104.9177856c-12.4902344-25.2924805-37.4589844-37.8217773-66.7802734-33.5205078  c-23.7285156,3.4819336-47.2929688,17.7485352-66.3505859,40.1723633  c-17.2089844,20.2475586-30.2158203,46.5185547-38.1845703,76.875  c-16.0336914-31.4047852-35.1064453-57.6425781-55.8569336-76.6904297  C168.791748,90.633606,144.411377,79.0862427,123.057869,79.2044067c-20.3696289,0.125-36.6435547,11.078125-44.6499023,30.0522461  c-20.9838867,49.7304688,10.9101563,159.3237305,163.3549805,317.7670898  c1.4516602,1.5087891,3.4448242,2.3769531,5.5385742,2.4111328c0.0429688,0.0009766,0.0859375,0.0009766,0.1293945,0.0009766  c0.0010986,0,0.0022583-0.0001831,0.0033569-0.0001831c0.0072021,0,0.0143433,0.0001831,0.0215454,0.0001831  c0.1033325,0,0.2049561-0.012146,0.3078003-0.0161743c0.1497803-0.0063477,0.3000488-0.008667,0.4485474-0.0234985  c0.2025146-0.0195313,0.4019775-0.0530396,0.6013184-0.0880737c0.0496216-0.0088501,0.1000366-0.0137939,0.149353-0.0236206  c0.2235718-0.0437012,0.4432373-0.1003418,0.661377-0.1630249c0.022522-0.0065308,0.0454712-0.0114136,0.0679321-0.0181885  c0.2346191-0.0697021,0.4645386-0.1516113,0.6912842-0.2427368c0.0031738-0.0012817,0.0064087-0.0023804,0.0095825-0.0036621  c1.0842285-0.4371338,2.0731201-1.1067505,2.8782349-1.9903564c0.0177002-0.0194702,0.034729-0.0385742,0.0524292-0.0580444  c74.5189819-72.5761108,126.0843506-139.6697998,153.2581177-199.4214478  C429.111084,177.8504028,433.5114746,134.3562622,418.9724121,104.9177856z M247.6501465,409.6204224  c-53.6416016-63.9375-92.6411133-124.8994141-112.9970703-176.7036133  c-16.5449142-42.1049805-20.4311447-77.7475586-10.6616135-97.7890625  c4.7265549-9.6948242,12.1079025-14.6015625,21.9575119-14.6015625c0.4262695,0,0.859375,0.0092773,1.2949219,0.027832  c26.5234375,1.1220703,66.2963867,35.8989258,95.3618164,111.0620117c1.2871094,3.3286133,4.6474609,5.3735352,8.2016602,4.980957  c3.546875-0.3925781,6.3857422-3.1240234,6.9140625-6.6538086c10.9228516-72.9892578,46.5654297-111.2045898,77.0429688-116.6992188  c16.1865234-2.9140625,30.0507813,3.6943359,38.0429688,18.1416016  C394.8210449,171.180481,374.8522949,267.6506958,247.6501465,409.6204224z M92.901619,115.3723755  c5.6049805-13.2832031,16.065918-20.3500977,30.2524414-20.4370117c0.0913086-0.0004883,0.1796875-0.0004883,0.2709961-0.0004883  c10.9652023,0,23.2257614,4.0654907,35.8243942,11.7171021c-3.8553467-1.0431519-7.6471558-1.6589355-11.3405151-1.8152466  c-16.5859375-0.7050781-30.4667892,7.8256836-38.0576096,23.3979492  c-11.8666992,24.3427734-8.2583008,63.5629883,10.1601563,110.4355469c1.8496704,4.7072144,3.8582153,9.4906006,5.9996338,14.335144  c-5.9242554-10.4221802-11.1989746-20.586792-15.7706299-30.4459839  C89.4221268,177.6638794,83.1027908,138.59552,92.901619,115.3723755z M392.2624512,220.8743286  c-5.9588623,13.1022339-13.1639404,26.5941162-21.5669556,40.4448242  c30.1688232-63.7557983,30.9749146-110.2553711,15.8775024-137.5483398  c-11.2919922-20.4130859-31.7001953-30.1362305-54.5996094-26.0083008  c-3.7687378,0.6794434-7.5274658,1.7235718-11.2518921,3.1098022c11.1847534-7.6653442,22.7347412-12.2937012,33.7538452-13.9105835  c22.2373047-3.2646484,41.0742188,6.0546875,50.3925781,24.9223633  C417.2770996,137.0095825,412.7995605,175.7166138,392.2624512,220.8743286z" fill="#fcefef"/>
</svg>